<svg width="189" height="47" viewBox="0 0 189 47" fill="none" xmlns="http://www.w3.org/2000/svg">
<path d="M30.8655 34.016C30.8655 21.36 11.8815 23.264 11.8815 17.384C11.8815 15.48 13.1695 14.528 14.7935 14.584C16.8095 14.584 18.3215 15.704 18.4335 18.168H30.3615C29.9695 10.328 24.0335 5.904 14.9615 5.904C6.61747 5.904 0.177469 10.048 0.177469 17.776C0.00946885 31.496 19.1615 28.528 19.2175 34.856C19.2175 36.704 17.7055 37.712 15.7455 37.712C13.7295 37.712 11.9935 36.704 11.7695 33.736H0.0654688C0.513469 42.192 7.34547 46.392 16.1375 46.392C25.4895 46.392 30.8655 40.96 30.8655 34.016ZM35.968 46H46.944V33.12L55.624 46H69.008L56.408 30.376L68.784 14.584H55.624L46.944 26.904V4.56H35.968V46ZM72.2258 46H83.2018V14.584H72.2258V46ZM77.7698 11.672C81.6338 11.672 84.1538 9.208 84.1538 6.072C84.1538 2.88 81.6338 0.359997 77.7698 0.359997C73.8498 0.359997 71.3298 2.88 71.3298 6.072C71.3298 9.208 73.8498 11.672 77.7698 11.672ZM110.844 46H121.82V27.688C121.82 19.456 117.284 14.304 110.004 14.304C105.58 14.304 102.276 16.376 100.428 19.064V14.584H89.4524V46H100.428V29.144C100.428 25.504 102.444 23.376 105.692 23.376C108.828 23.376 110.844 25.504 110.844 29.144V46Z" fill="#EFEFFF"/>
<path d="M127.843 46H138.819V30.544H150.467V22.2H138.819V15.256H154.611V6.52H127.843V46ZM157.05 15.256H167.466V46H178.442V15.256H188.97V6.52H157.05V15.256Z" fill="url(#paint0_linear_213_477)"/>
<defs>
<linearGradient id="paint0_linear_213_477" x1="-85" y1="-6" x2="-62.453" y2="117.917" gradientUnits="userSpaceOnUse">
<stop stop-color="#B2FEFA"/>
<stop offset="1" stop-color="#0ED2F7"/>
</linearGradient>
</defs>
</svg>
