<svg width="20" height="12" viewBox="0 0 20 12" fill="none" xmlns="http://www.w3.org/2000/svg">
<path d="M18.508 3.4528C18.508 4.47127 17.6793 5.29788 16.6568 5.29788C15.6342 5.29788 14.8056 4.47127 14.8056 3.4528C14.8056 2.43433 15.6342 1.60976 16.6568 1.60976C17.6793 1.60976 18.508 2.43433 18.508 3.4528ZM17.761 6.56944L15.5199 8.47984C15.5444 8.63292 15.5608 8.78803 15.5608 8.94519C15.5608 10.5719 14.2382 11.8904 12.6054 11.8904C11.1971 11.8904 10.0214 10.9087 9.72343 9.59628L4.18206 7.72262C3.74528 8.05327 3.20032 8.25329 2.60843 8.25329C1.16747 8.25329 0 7.0899 0 5.65506C0 4.22022 1.16747 3.05684 2.60843 3.05684C3.84733 3.05684 4.88213 3.91611 5.14746 5.06929L10.499 6.87764C11.0195 6.35105 11.74 6.02041 12.536 6.00408L13.3381 3.5773C13.336 3.52832 13.3299 3.48137 13.3299 3.43239C13.3299 1.59751 14.824 0.109604 16.665 0.109604C18.506 0.109604 20 1.59751 20 3.43239C20.0041 4.8856 19.0652 6.11838 17.761 6.56944ZM4.24941 4.76518C3.93713 4.20594 3.33911 3.82835 2.65333 3.82835C1.64506 3.82835 0.826614 4.64272 0.826614 5.6469C0.826614 6.65108 1.64506 7.46545 2.65333 7.46545C2.83906 7.46545 3.01867 7.43688 3.18808 7.38585L2.32064 7.09194C1.62057 6.71844 1.35932 5.851 1.73283 5.15501C2.10838 4.45902 2.97785 4.19777 3.67588 4.56924L4.24941 4.76518ZM14.0667 3.44055C14.0667 4.86519 15.2281 6.02041 16.6568 6.02041C18.0875 6.02041 19.2468 4.86519 19.2468 3.44055C19.2468 2.01388 18.0855 0.85866 16.6568 0.85866C15.2281 0.85866 14.0667 2.01388 14.0667 3.44055ZM14.1178 9.19828C14.1178 8.1145 13.234 7.23278 12.1461 7.23278C11.9931 7.23278 11.8461 7.25114 11.7032 7.2838L12.8054 7.65527C13.5055 8.02877 13.7667 8.89621 13.3932 9.5922C13.0176 10.2902 12.1482 10.5515 11.4501 10.178L10.2623 9.77589C10.5092 10.578 11.2603 11.1617 12.1461 11.1617C13.236 11.1617 14.1178 10.2821 14.1178 9.19828Z" fill="url(#paint0_linear_314_504)"/>
<defs>
<linearGradient id="paint0_linear_314_504" x1="0" y1="0.109604" x2="10.3037" y2="17.6019" gradientUnits="userSpaceOnUse">
<stop stop-color="#FFF680"/>
<stop offset="1" stop-color="#FFDB1B"/>
</linearGradient>
</defs>
</svg>
